<svg width="38" height="38" viewBox="0 0 38 38" fill="none" xmlns="http://www.w3.org/2000/svg">
<path fill-rule="evenodd" clip-rule="evenodd" d="M28.3227 24.144L14.3232 26.0085C13.3667 26.1359 12.4149 25.8546 11.6967 25.2323L8.79966 22.7222L4.01442 23.3595C3.63961 23.4094 3.48797 23.8866 3.76942 24.1305L12.5567 31.7441C13.0055 32.133 13.6004 32.3088 14.1982 32.2292L33.9859 29.5939C34.3695 29.5428 34.5156 29.0478 34.2169 28.8113L28.3227 24.144Z" fill="#198CFF"/>
<path fill-rule="evenodd" clip-rule="evenodd" d="M28.322 16.6207L14.3232 18.485C13.3667 18.6124 12.4149 18.3311 11.6967 17.7088L8.80026 15.1992L4.01442 15.8366C3.63961 15.8865 3.48797 16.3637 3.76942 16.6076L12.5567 24.2212C13.0055 24.6102 13.6004 24.786 14.1982 24.7064L33.9859 22.071C34.3695 22.02 34.5156 21.525 34.2169 21.2884L28.322 16.6207Z" fill="#389BFF"/>
<path fill-rule="evenodd" clip-rule="evenodd" d="M4.01402 8.30944L23.0908 5.7688C23.6578 5.69329 24.2236 5.84706 24.6651 6.19669L34.2193 13.7621C34.5207 14.0007 34.3733 14.5001 33.9863 14.5517L14.1986 17.187C13.5997 17.2667 13.0037 17.0906 12.5541 16.701L3.76682 9.08735C3.48284 8.8413 3.63585 8.3598 4.01402 8.30944Z" fill="#56ABFF"/>
</svg>
